# xmcd
#
# Track frame offsets:
#	182
#	13187
#	26467
#	37330
#	50245
#	62375
#	73277
#	85750
#
# Disc length: 1282 seconds
#
# Revision: 2
# Processed by: cddbd v1.5.1PL0 Copyright (c) Steve Scherf et al.
# Submitted via: audiograbber 1.83.01
#
DISCID=6e050008
DTITLE=Collections - America For Ever
DYEAR=1900
DGENRE=
TTITLE0=Percy Sledge - When a man Loves a Woman
TTITLE1=Ben E. King - Stand by me
TTITLE2=Aretha Franklin - Respect
TTITLE3=Dionne Warwick - Walk on by
TTITLE4=Lovin' Spoonful - Summer in the city
TTITLE5=The Beach Boys - Surfer Girl
TTITLE6=The Platters - Twilight time
TTITLE7=Fats Domino - Blueberry Hill
EXTD=
EXTT0=
EXTT1=
EXTT2=
EXTT3=
EXTT4=
EXTT5=
EXTT6=
EXTT7=
PLAYORDER=
